<?xml version="1.0" encoding="UTF-8" standalone="no" ?>
<!DOCTYPE svg PUBLIC "-//W3C//DTD SVG 1.1//EN" "http://www.w3.org/Graphics/SVG/1.1/DTD/svg11.dtd">
<svg xmlns="http://www.w3.org/2000/svg" xmlns:xlink="http://www.w3.org/1999/xlink" version="1.1" width="640" height="640" viewBox="0 0 640 640" xml:space="preserve">
<desc>Created with Fabric.js 5.3.0</desc>
<defs>
</defs>
<g transform="matrix(1 0 0 1 320 320)" id="LFhCbLGKwNbkKmz4yVr6-"  >
<g style="" vector-effect="non-scaling-stroke"   >
		<g transform="matrix(1.9951119757 0 0 1.9951119757 0 0)" id="IL1E8CB82Up2mZZMLWU7p"  >
<path style="stroke: none; stroke-width: 1; stroke-dasharray: none; stroke-linecap: butt; stroke-dashoffset: 0; stroke-linejoin: miter; stroke-miterlimit: 4; fill: rgb(0,0,0); fill-rule: nonzero; opacity: 1;" vector-effect="non-scaling-stroke"  transform=" translate(-200.49, -200.49)" d="M 356.526 0 L 44.454 0 C 42.245 0 40.454 1.791 40.454 4 L 40.454 396.98 C 40.454 399.189 42.245 400.98 44.454 400.98 L 356.526 400.98 C 358.735 400.98 360.526 399.189 360.526 396.98 L 360.526 4 C 360.526 1.791 358.735 0 356.526 0 z M 352.526 392.98 L 48.454 392.98 L 48.454 8 L 352.526 8 L 352.526 392.98 z" stroke-linecap="round" />
</g>
		<g transform="matrix(1.9951119757 0 0 1.9951119757 -11.2316328587 -166.7760104282)" id="Q0-h3jNzfMDjTpUbprXeA"  >
<path style="stroke: none; stroke-width: 1; stroke-dasharray: none; stroke-linecap: butt; stroke-dashoffset: 0; stroke-linejoin: miter; stroke-miterlimit: 4; fill: rgb(0,0,0); fill-rule: nonzero; opacity: 1;" vector-effect="non-scaling-stroke"  transform=" translate(-194.8604248204, -116.8976941731)" d="M 189.11 128.898 C 191.31900000000002 128.898 193.11 127.107 193.11 124.898 L 193.11 113.076 L 200.436 113.39399999999999 C 202.651 113.499 204.51000000000002 111.779 204.606 109.57199999999999 C 204.702 107.365 202.99099999999999 105.49799999999999 200.784 105.40199999999999 L 189.284 104.90199999999999 C 188.17999999999998 104.84899999999999 187.132 105.25499999999998 186.344 106.00799999999998 C 185.55599999999998 106.76299999999998 185.111 107.80699999999999 185.111 108.89799999999998 L 185.111 124.89799999999998 C 185.11 127.107 186.901 128.898 189.11 128.898 z" stroke-linecap="round" />
</g>
		<g transform="matrix(1.9951119757 0 0 1.9951119757 -8.6807322061 234.7430142432)" id="wZnuBMC3skRuoKlUTkAJ6"  >
<path style="stroke: none; stroke-width: 1; stroke-dasharray: none; stroke-linecap: butt; stroke-dashoffset: 0; stroke-linejoin: miter; stroke-miterlimit: 4; fill: rgb(0,0,0); fill-rule: nonzero; opacity: 1;" vector-effect="non-scaling-stroke"  transform=" translate(-196.139, -318.149067314)" d="M 186.175 304.806 C 184.46800000000002 303.406 181.946 303.654 180.54600000000002 305.363 C 179.145 307.071 179.395 309.592 181.103 310.992 L 206.103 331.492 C 206.847 332.10200000000003 207.745 332.399 208.637 332.399 C 209.793 332.399 210.942 331.9 211.732 330.935 C 213.133 329.227 212.883 326.706 211.175 325.306 L 186.175 304.806 z" stroke-linecap="round" />
</g>
		<g transform="matrix(1.9951119757 0 0 1.9951119757 94.5637509353 105.5307154467)" id="rcAP1WJlMNHhgYWWme69W"  >
<path style="stroke: none; stroke-width: 1; stroke-dasharray: none; stroke-linecap: butt; stroke-dashoffset: 0; stroke-linejoin: miter; stroke-miterlimit: 4; fill: rgb(0,0,0); fill-rule: nonzero; opacity: 1;" vector-effect="non-scaling-stroke"  transform=" translate(-247.8877160625, -253.3846328498)" d="M 266.781 219.901 C 241.853 218.978 232.252 238.41500000000002 230.691 248.75 L 225.191 282.25 C 224.834 284.431 226.31 286.487 228.49 286.846 C 228.71 286.882 228.928 286.9 229.143 286.9 C 231.067 286.9 232.763 285.507 233.085 283.54699999999997 L 238.59300000000002 249.99499999999998 C 238.735 249.057 242.38100000000003 227.04599999999996 266.495 227.89499999999998 C 268.682 227.97299999999998 270.556 226.249 270.635 224.04099999999997 C 270.715 221.833 268.989 219.98 266.781 219.901 z" stroke-linecap="round" />
</g>
		<g transform="matrix(1.9951119757 0 0 1.9951119757 0 0.000997556)" id="JqI4Bif_eBgTCG6jNiTPu"  >
<path style="stroke: none; stroke-width: 1; stroke-dasharray: none; stroke-linecap: butt; stroke-dashoffset: 0; stroke-linejoin: miter; stroke-miterlimit: 4; fill: rgb(0,0,0); fill-rule: nonzero; opacity: 1;" vector-effect="non-scaling-stroke"  transform=" translate(-200.49, -200.4905)" d="M 79.841 357.983 C 79.841 360.192 81.63199999999999 361.983 83.841 361.983 L 317.139 361.983 C 319.348 361.983 321.139 360.192 321.139 357.983 L 321.139 42.998 C 321.139 40.788999999999994 319.348 38.998 317.139 38.998 L 83.841 38.998 C 81.63199999999999 38.998 79.841 40.788999999999994 79.841 42.998 L 79.841 357.983 z M 157.678 164.112 C 155.499 170.37699999999998 155.707 179.216 156.08599999999998 184.402 C 146.874 186.111 126.12999999999998 194.41699999999997 116.93699999999998 234.14 C 114.12799999999999 237.64899999999997 110.06699999999998 241.39299999999997 105.78299999999999 245.34199999999998 C 99.72999999999999 250.92 93.17099999999999 256.971 87.84199999999998 264.2 L 87.84199999999998 123.898 L 147.5 123.898 C 147.472 138.216 150.345 156.648 157.678 164.112 z M 313.139 277.223 C 305.37 248.417 292.119 211.709 273.92 185.61100000000002 C 268.44800000000004 177.764 256.243 167.25400000000002 249.686 161.60700000000003 L 249.366 161.33100000000002 C 247.973 152.25900000000001 246.04100000000003 137.538 244.31500000000003 123.89900000000002 L 313.14000000000004 123.89900000000002 L 313.14000000000004 277.223 z M 186.51 288.378 C 181.64999999999998 285.709 176.94299999999998 283.589 172.61499999999998 281.92199999999997 C 172.63599999999997 280.974 172.57799999999997 279.962 172.62999999999997 279.159 C 174.40299999999996 251.97299999999998 190.56199999999995 228.874 220.65599999999998 210.5 C 243.521 196.541 266.221 190.751 266.448 190.693 C 266.78499999999997 190.608 267.167 190.54500000000002 267.565 190.49 C 268.79 192.257 269.995 194.079 271.178 195.95700000000002 C 265.479 197.09300000000002 249.519 200.972 232.814 211.30800000000002 C 214.748 222.485 192.664 243.48400000000004 187.332 280.75600000000003 C 187.063 282.64 186.542 287.719 186.51 288.378 z M 201.784 211.414 C 182.25799999999998 213.16 166.06199999999998 204.255 159.829 196.78799999999998 C 161.773 189.19199999999998 177.72400000000002 176.99699999999999 189.148 170.35699999999997 C 190.478 169.58399999999997 191.248 168.11499999999998 191.126 166.58099999999996 L 190.447 158.04399999999995 C 191.05700000000002 158.09599999999995 191.669 158.13399999999996 192.284 158.14799999999997 L 193.357 158.16799999999998 C 200.903 158.32799999999997 208.232 155.72699999999998 213.971 150.807 L 214.01 150.773 L 215.869 204.06099999999998 C 212.206 206.31999999999996 208.724 208.66099999999997 205.437 211.08399999999997 C 203.836 211.204 202.454 211.355 201.784 211.414 z M 173.64 106.398 C 173.63 106.398 173.61999999999998 106.398 173.612 106.398 L 168.582 106.43299999999999 L 167.281 90.032 C 167.314 89.959 167.35500000000002 89.887 167.383 89.812 C 169.90300000000002 87.451 175.89600000000002 82.50999999999999 182.517 81.88 C 194.719 80.716 209.721 82.45899999999999 212.149 97.28099999999999 L 213.654 140.543 L 208.765 144.731 C 204.527 148.36499999999998 199.13799999999998 150.293 193.524 150.16899999999998 L 192.448 150.14899999999997 C 186.392 150.015 180.544 147.39699999999996 176.405 142.97099999999998 C 174.674 141.11299999999997 173.27100000000002 138.98399999999998 172.241 136.64999999999998 C 171.21 134.30199999999996 170.59 131.837 170.39600000000002 129.31199999999998 L 169.216 114.42799999999998 L 173.666 114.39799999999998 C 175.875 114.38199999999998 177.654 112.57999999999998 177.639 110.37099999999998 C 177.623 108.171 175.836 106.398 173.64 106.398 z M 241.688 164.023 C 241.83599999999998 164.956 242.308 165.80599999999998 243.023 166.424 L 244.466 167.669 C 248.67100000000002 171.29000000000002 256.13800000000003 177.726 261.823 183.668 C 255.80399999999997 185.405 240.52799999999996 190.306 223.71599999999998 199.49800000000002 L 221.718 142.221 C 221.71699999999998 142.199 221.71599999999998 142.17600000000002 221.715 142.154 L 220.137 96.75999999999999 C 220.131 96.603 220.116 96.446 220.092 96.28999999999999 C 217.584 79.99 203.61100000000002 71.841 181.76000000000002 73.916 C 178.507 74.226 175.45100000000002 75.217 172.717 76.499 C 176.93900000000002 71.056 184.21 65.898 196.639 65.898 C 206.20000000000002 65.898 214.62800000000001 69.719 221.69 77.255 C 228.322 84.33099999999999 232.48499999999999 93.442 233.728 103.602 C 235.76 120.207 239.495 150.137 241.688 164.023 z M 160.157 101.392 L 162.42100000000002 129.934 C 162.68300000000002 133.35 163.52200000000002 136.69299999999998 164.92000000000002 139.875 C 166.31500000000003 143.036 168.21 145.913 170.55800000000002 148.433 C 173.81500000000003 151.916 177.85500000000002 154.564 182.27700000000002 156.212 L 182.95600000000002 164.753 C 180.04600000000002 166.553 174.622 170.05499999999998 169.109 174.37699999999998 C 167.191 175.88099999999997 165.449 177.343 163.852 178.772 C 163.79500000000002 173.34699999999998 164.30700000000002 167.70399999999998 166.004 165.063 C 166.618 164.10799999999998 166.798 162.93599999999998 166.49699999999999 161.84099999999998 C 166.196 160.74499999999998 165.444 159.82999999999998 164.42899999999997 159.32099999999997 C 157.47999999999996 155.84599999999998 153.36899999999997 125.60199999999998 156.53799999999998 111.79499999999996 C 157.445 107.841 158.767 104.339 160.157 101.392 z M 87.841 353.983 L 87.841 280.429 C 92.496 268.486 102.419 259.32099999999997 111.20299999999999 251.22499999999997 C 114.55499999999999 248.13699999999997 117.76499999999999 245.16699999999997 120.50699999999999 242.21199999999996 C 124.60399999999998 242.43399999999997 135.351 243.74299999999997 138.304 251.35399999999996 C 139.843 258.60499999999996 142.788 264.905 147.085 269.98299999999995 C 147.876 270.917 149.005 271.39899999999994 150.14100000000002 271.39899999999994 C 151.05400000000003 271.39899999999994 151.97100000000003 271.08799999999997 152.723 270.4529999999999 C 154.40900000000002 269.0259999999999 154.619 266.5019999999999 153.193 264.81499999999994 C 138.382 247.31199999999995 148.32100000000003 217.49499999999995 148.423 217.19499999999994 C 149.139 215.10699999999994 148.028 212.83399999999995 145.94 212.11599999999993 C 143.84199999999998 211.39699999999993 141.574 212.50999999999993 140.856 214.59799999999993 C 140.737 214.94599999999994 137.924 223.22799999999992 137.21099999999998 234.07399999999993 C 137.111 235.5949999999999 137.069 237.08599999999993 137.06199999999998 238.55499999999992 C 133.05899999999997 236.22899999999993 128.588 235.12599999999992 125.04899999999998 234.61099999999993 C 131.777 206.90399999999994 144.22699999999998 197.18899999999994 152.39399999999998 193.78899999999993 C 151.944 195.14399999999992 151.69099999999997 196.46299999999994 151.64199999999997 197.74599999999992 C 151.60799999999998 198.6239999999999 151.86499999999998 199.48799999999991 152.37099999999998 200.20599999999993 C 156.13299999999998 205.53599999999994 162.95399999999998 210.65299999999993 171.08499999999998 214.24599999999992 C 176.60399999999998 216.6839999999999 184.855 219.33199999999994 195.021 219.60999999999993 C 176.48399999999998 236.49599999999992 166.087 256.55999999999995 164.648 278.6379999999999 C 164.637 278.8109999999999 164.618 278.9889999999999 164.596 279.1679999999999 C 156.335 276.66899999999987 150.666 275.9869999999999 150.08 275.9229999999999 C 149.20700000000002 275.8259999999999 148.31 276.0229999999999 147.55300000000003 276.4859999999999 C 143.19400000000002 279.14999999999986 140.25900000000001 283.3069999999999 139.06600000000003 288.5069999999999 C 137.96800000000002 293.2949999999999 138.46400000000003 298.6529999999999 140.32900000000004 303.2789999999999 C 136.50500000000002 305.03699999999986 132.16700000000003 305.9369999999999 128.73900000000003 306.4019999999999 C 120.43300000000004 291.9879999999999 128.93400000000003 284.9299999999999 130.00400000000002 284.1249999999999 C 131.77400000000003 282.8289999999999 132.17000000000002 280.3459999999999 130.88600000000002 278.5619999999999 C 129.59600000000003 276.7689999999999 127.09500000000003 276.3639999999999 125.30300000000003 277.6529999999999 C 120.17700000000002 281.3429999999999 113.46900000000002 291.5089999999999 119.61200000000002 306.0059999999999 C 115.25500000000002 304.29599999999994 108.47300000000003 299.4949999999999 109.62500000000003 286.2459999999999 C 110.12500000000003 280.4969999999999 112.07600000000002 276.24299999999994 115.42600000000003 273.6039999999999 C 120.99400000000003 269.21399999999994 128.92100000000002 270.33399999999995 129.02800000000002 270.3519999999999 C 131.193 270.6809999999999 133.24400000000003 269.2039999999999 133.591 267.0279999999999 C 133.93900000000002 264.8449999999999 132.45100000000002 262.7959999999999 130.27 262.4489999999999 C 129.80700000000002 262.3739999999999 118.909 260.7319999999999 110.546 267.2639999999999 C 105.349 271.3239999999999 102.358 277.4769999999999 101.655 285.5519999999999 C 99.342 312.1569999999999 121.993 314.8529999999999 122.221 314.8759999999999 C 122.361 314.8909999999999 137.965 314.82199999999995 147.859 308.2269999999999 C 148.032 308.1119999999999 151.94 305.7659999999999 151.94 305.7659999999999 C 152.61599999999999 306.6429999999999 153.519 307.7729999999999 154.588 309.0469999999999 L 138.779 317.3579999999999 C 137.464 318.04899999999986 136.64 319.4129999999999 136.64 320.8979999999999 L 136.64 332.8979999999999 C 136.64 335.1069999999999 138.43099999999998 336.8979999999999 140.64 336.8979999999999 C 142.849 336.8979999999999 144.64 335.1069999999999 144.64 332.8979999999999 L 144.64 323.3139999999999 L 160.153 315.1579999999999 C 162.21599999999998 317.2479999999999 164.57399999999998 319.4369999999999 167.179 321.5779999999999 L 153.52100000000002 325.55799999999994 C 152.33100000000002 325.9049999999999 151.371 326.78299999999996 150.917 327.9359999999999 L 145.417 341.9359999999999 C 144.608 343.99299999999994 145.621 346.3139999999999 147.677 347.1209999999999 C 148.15699999999998 347.3109999999999 148.653 347.39899999999994 149.13899999999998 347.39899999999994 C 150.736 347.39899999999994 152.24399999999997 346.4359999999999 152.86299999999997 344.86099999999993 L 157.64499999999998 332.6889999999999 L 175.44699999999997 327.5019999999999 C 178.34899999999996 329.2799999999999 181.43899999999996 330.8749999999999 184.70499999999998 332.1309999999999 C 185.177 332.31299999999993 185.66199999999998 332.3989999999999 186.13899999999998 332.3989999999999 C 187.74599999999998 332.3989999999999 189.26199999999997 331.4229999999999 189.873 329.8339999999999 C 190.666 327.7719999999999 189.63799999999998 325.4579999999999 187.575 324.6649999999999 C 169.534 317.7249999999999 157.57 300.3299999999999 157.45399999999998 300.1589999999999 C 156.47699999999998 298.7159999999999 154.68099999999998 298.0699999999999 153.01099999999997 298.5599999999999 L 147.70199999999997 300.12099999999987 C 146.50799999999998 297.0359999999999 146.15799999999996 293.3779999999999 146.86499999999998 290.29399999999987 C 147.46599999999998 287.6759999999999 148.72699999999998 285.59199999999987 150.623 284.08099999999985 C 157.38899999999998 285.18599999999986 186.81 291.27299999999985 208.64 316.04199999999986 C 209.43099999999998 316.93899999999985 210.534 317.3969999999999 211.64299999999997 317.3969999999999 C 212.58199999999997 317.3969999999999 213.52599999999998 317.06799999999987 214.28599999999997 316.39799999999985 C 215.94299999999998 314.93699999999984 216.10299999999998 312.40999999999985 214.64199999999997 310.75199999999984 C 213.25899999999996 309.1829999999998 211.84499999999997 307.69899999999984 210.41699999999997 306.2669999999998 L 240.24899999999997 300.8519999999998 C 241.19999999999996 300.7439999999998 252.77199999999996 299.6359999999998 259.991 308.8619999999998 C 260.78 309.8709999999998 261.95599999999996 310.3969999999998 263.144 310.3969999999998 C 264.00600000000003 310.3969999999998 264.874 310.11999999999983 265.606 309.5469999999998 C 267.346 308.1849999999998 267.653 305.6709999999998 266.291 303.9319999999998 C 255.992 290.7729999999998 239.781 292.8379999999998 239.094 292.9339999999998 C 239.03799999999998 292.9419999999998 238.983 292.9509999999998 238.926 292.9609999999998 L 202.95799999999997 299.4889999999998 C 200.13799999999998 297.1709999999998 197.28799999999998 295.0729999999998 194.44499999999996 293.1809999999998 C 194.48399999999995 291.06699999999984 194.50499999999997 288.55499999999984 194.62399999999997 287.2629999999998 C 194.81699999999998 285.1719999999998 195.06399999999996 283.1149999999998 195.36699999999996 281.0909999999998 C 199.41999999999996 253.9749999999998 213.33199999999997 232.85699999999977 236.78299999999996 218.25799999999978 C 255.75599999999997 206.44799999999978 274.23099999999994 203.5209999999998 274.54299999999995 203.4729999999998 C 274.77199999999993 203.4389999999998 275.15 203.3909999999998 275.5799999999999 203.3309999999998 C 297.93799999999993 242.8449999999998 311.86299999999994 299.1229999999998 313.13999999999993 317.5479999999998 L 313.13999999999993 353.9799999999998 L 87.841 353.9799999999998 z M 313.139 46.998 L 313.139 115.898 L 243.30900000000003 115.898 C 242.699 111.008 242.13800000000003 106.461 241.67000000000002 102.63 C 240.21900000000002 90.774 235.328 80.108 227.52800000000002 71.78399999999999 C 218.89300000000003 62.56899999999999 208.50100000000003 57.89699999999999 196.639 57.89699999999999 C 170.844 57.89699999999999 160.95000000000002 77.06099999999999 159.239 87.481 C 156.657 90.84299999999999 151.311 98.812 148.741 110.002 C 148.36200000000002 111.652 148.066 113.655 147.85600000000002 115.89699999999999 L 87.841 115.89699999999999 L 87.841 46.996999999999986 L 313.139 46.996999999999986 z" stroke-linecap="round" />
</g>
</g>
</g>
</svg>